<svg width="229" height="38" fill="none" version="1.1" xmlns="http://www.w3.org/2000/svg">
  <style>
    .icon {
      fill: var(--icon-color, #277fa0);
    }

    .text {
      fill: var(--text-color, #2E2E32);
    }

    .beta {
      fill: var(--beta-color, var(--text-color, #2E2E32));
    }
</style>
  <path class="beta" d="m223.06 0-2.856 9.128h2.1l0.56-2.17h2.786l0.56 2.17h2.184l-2.856-9.128zm0.224 5.348 0.224-0.84a24.7 24.7 0 0 0 0.364-1.442c0.122-0.513 0.238-1.013 0.35-1.498h0.056c0.122 0.476 0.243 0.97 0.364 1.484 0.131 0.513 0.257 0.999 0.378 1.456l0.21 0.84zm-16.806-5.348v9.128h5.852v-1.736h-3.794v-2.1h3.108v-1.722h-3.108v-1.834h3.654v-1.736zm9.447 9.128v-7.392h-2.506v-1.736h7.084v1.736h-2.506v7.392zm-17.924-9.128v9.128h3.388c0.663 0 1.26-0.093 1.792-0.28 0.532-0.196 0.957-0.49 1.274-0.882s0.476-0.9 0.476-1.526c0-0.607-0.159-1.083-0.476-1.428a2.251 2.251 0 0 0-1.162-0.714v-0.056c0.373-0.14 0.663-0.401 0.868-0.784a2.45 2.45 0 0 0 0.322-1.19c0-0.588-0.149-1.045-0.448-1.372s-0.7-0.555-1.204-0.686a6.385 6.385 0 0 0-1.708-0.21h-3.122zm3.024 3.654h-0.966v-2.058h0.98c0.485 0 0.845 0.075 1.078 0.224 0.233 0.15 0.35 0.401 0.35 0.756a0.973 0.973 0 0 1-0.35 0.784c-0.224 0.196-0.588 0.294-1.092 0.294zm0.196 3.878h-1.162v-2.352h1.162c0.569 0 0.994 0.089 1.274 0.266 0.28 0.168 0.42 0.453 0.42 0.854 0 0.821-0.565 1.232-1.694 1.232z" fill="#2e2e32"></path>
  <path class="text" d="M50.39 23.64c0 .93-.29 1.67-.86 2.23-.57.56-1.35.83-2.32.83h-1.3v3.79h1.3c1.5 0 2.79-.29 3.9-.88 1.1-.59 1.95-1.4 2.55-2.46.6-1.05.89-2.28.89-3.67V7.9H50.4v15.74h-.01ZM70.34 14.75c-1.31-.75-2.78-1.12-4.4-1.12-1.62 0-3.11.38-4.43 1.12a8.61 8.61 0 0 0-3.14 3.06c-.78 1.29-1.17 2.77-1.17 4.43 0 1.66.39 3.13 1.17 4.43a8.562 8.562 0 0 0 3.15 3.06c1.32.75 2.79 1.12 4.41 1.12s3.05-.38 4.37-1.12a8.638 8.638 0 0 0 3.15-3.06c.79-1.29 1.18-2.77 1.18-4.43 0-1.66-.39-3.16-1.17-4.44a8.586 8.586 0 0 0-3.14-3.05h.02ZM69.9 24.8a4.48 4.48 0 0 1-1.61 1.78c-.68.42-1.46.64-2.35.64-.89 0-1.71-.21-2.4-.64a4.432 4.432 0 0 1-1.62-1.78c-.39-.76-.59-1.61-.59-2.56s.2-1.82.59-2.56c.39-.74.93-1.32 1.62-1.76.69-.43 1.49-.65 2.4-.65.91 0 1.67.22 2.35.65.68.44 1.21 1.02 1.61 1.76.39.74.59 1.59.59 2.56s-.2 1.8-.59 2.56ZM87.958 23.67c0 .73-.14 1.36-.42 1.88-.28.52-.68.94-1.18 1.23-.5.29-1.08.44-1.73.44-.65 0-1.23-.15-1.74-.44-.52-.29-.91-.7-1.18-1.21-.27-.51-.41-1.12-.41-1.8v-9.78h-3.97v10.1c0 1.35.25 2.54.74 3.55.5 1.01 1.21 1.8 2.15 2.37.94.56 2.05.85 3.32.85 1.17 0 2.2-.25 3.08-.76.66-.38 1.18-.9 1.56-1.56v1.96h3.76V13.99h-3.97v9.67l-.01.01ZM100.859 14.54c-.63.37-1.13.97-1.5 1.79v-2.34h-3.73v16.5h3.97V21.3c0-1.25.34-2.23 1.03-2.93.69-.7 1.6-1.05 2.73-1.05h1.42V13.8h-.97c-1.15 0-2.14.24-2.96.73l.01.01ZM118.599 14.42c-.94-.53-2.02-.79-3.23-.79s-2.2.26-3.08.77c-.68.4-1.21.94-1.59 1.63v-2.04h-3.73v16.5h3.97v-9.67c0-.73.14-1.35.42-1.88.28-.53.68-.93 1.18-1.23.5-.29 1.08-.44 1.73-.44.65 0 1.25.15 1.74.44.49.29.88.7 1.17 1.23.28.53.42 1.15.42 1.88v9.67h3.97V19.88c0-1.23-.26-2.32-.79-3.26a5.674 5.674 0 0 0-2.2-2.2h.02ZM135.591 14.37c-1.03-.5-2.22-.74-3.58-.74-1.11 0-2.14.18-3.09.55-.95.36-1.77.86-2.47 1.5a5.68 5.68 0 0 0-1.53 2.26l3.24 1.58c.3-.75.78-1.35 1.44-1.8.66-.46 1.41-.68 2.26-.68.91 0 1.64.24 2.2.71.56.47.83 1.07.83 1.77v.53l-4.91.8c-1.29.2-2.37.55-3.21 1.03-.85.49-1.48 1.09-1.88 1.8-.4.71-.61 1.53-.61 2.44 0 .91.23 1.78.7 2.5.46.72 1.12 1.27 1.97 1.65.85.38 1.85.58 3 .58.91 0 1.74-.13 2.49-.38a6.35 6.35 0 0 0 2-1.09c.24-.19.46-.42.67-.65v1.76h3.76V19.51c0-1.17-.29-2.2-.86-3.08-.58-.88-1.38-1.57-2.41-2.06h-.01Zm-1.23 11.45a3.7 3.7 0 0 1-1.49 1.47c-.64.36-1.37.53-2.2.53-.65 0-1.19-.17-1.62-.5-.43-.33-.65-.78-.65-1.35 0-.57.19-1.06.58-1.43.38-.36.97-.62 1.76-.76l4.15-.7v.68c0 .75-.18 1.44-.53 2.06ZM146.501 7.53h-3.97v22.95h3.97V7.53ZM157.21 25.37l-4.27-11.38h-4.28l6.53 16.5-.37.87c-.32.69-.69 1.24-1.11 1.67-.41.43-1.08.64-1.99.64-.32 0-.67-.03-1.05-.09s-.69-.12-.96-.18v3.33c.34.16.73.28 1.15.35.42.07.86.11 1.3.11 1.03 0 1.95-.2 2.74-.59.8-.39 1.5-.96 2.11-1.71.61-.75 1.12-1.66 1.55-2.73L165.75 14h-4.31l-4.25 11.38.02-.01ZM176.981 27.18c-.65 0-1.18-.1-1.59-.3a1.9 1.9 0 0 1-.91-.88c-.19-.38-.29-.85-.29-1.4v-7.06h3.79v-3.55h-3.79v-3.76h-3.97v1.27c0 .81-.22 1.42-.67 1.85-.45.42-1.07.64-1.88.64h-.3v3.55h2.85v7.28c0 1.86.51 3.3 1.53 4.32 1.02 1.02 2.46 1.53 4.32 1.53.3 0 .64-.02 1-.06.36-.04.69-.08.97-.12v-3.4l-.56.06c-.19.02-.36.03-.5.03ZM185.04 13.99h-3.97v16.49h3.97V13.99ZM185.04 7.9h-3.97v4.25h3.97V7.9ZM199.141 26.45c-.71.51-1.54.76-2.49.76-.87 0-1.64-.21-2.32-.64a4.371 4.371 0 0 1-1.59-1.76c-.38-.75-.58-1.61-.58-2.58s.19-1.83.58-2.58c.38-.75.91-1.33 1.59-1.76.68-.42 1.45-.64 2.32-.64.93 0 1.75.25 2.47.76.72.5 1.23 1.17 1.53 2l3.49-1.52c-.32-.99-.85-1.84-1.59-2.56-.74-.72-1.61-1.28-2.62-1.7-1.01-.42-2.1-.62-3.27-.62-1.64 0-3.11.38-4.41 1.12-1.3.74-2.33 1.77-3.08 3.06s-1.12 2.76-1.12 4.4c0 1.64.37 3.11 1.12 4.41.75 1.3 1.77 2.33 3.08 3.09 1.31.76 2.77 1.14 4.41 1.14 1.19 0 2.29-.21 3.3-.62 1.01-.41 1.88-.99 2.61-1.73s1.25-1.57 1.58-2.5l-3.49-1.58c-.3.85-.81 1.53-1.52 2.03v.02Z"></path>
  <path class="icon" d="m14.411 18.66h-9.38v2.4h9.38zm0-5.58h-9.38v2.4h9.38zm0 11.16h-9.38v2.4h9.38zm4.639-15.44c-1.1-1.03-3.03-1.8-6.07-1.8h-12.98v25.25h12.98c2.4 0 4.42 0.96 5.44 1.99 0.29 0.29 0.75 0.24 1.04-0.04 1.12-1.1 3.26-1.95 5.67-1.95h12.98v-25.25h-12.98c-3.04 0-4.97 0.76-6.07 1.8zm-1.2 22.03c-1.24-0.63-2.9-0.97-4.87-0.97h-10.58v-20.46h10.58c3.2 0 4.87 1.01 4.87 2.01zm16.12-4.01h-12.08v-2.15h12.08zm-5.1-7.81 1.95-4.09-1.86-0.92 5.27-3.33 0.54 6.21-2.03-1.01-3.22 6.62-3.59-2.92-2.6 3.72-1.79-1.19 3.98-5.63 3.34 2.54z"></path>
</svg>